<?xml version="1.0" encoding="utf-8"?>
<!-- Generator: Adobe Illustrator 25.4.1, SVG Export Plug-In . SVG Version: 6.00 Build 0)  -->
<svg version="1.1" id="Layer_1" xmlns="http://www.w3.org/2000/svg" xmlns:xlink="http://www.w3.org/1999/xlink" x="0px" y="0px"
	 viewBox="0 0 135.5 135.5" style="enable-background:new 0 0 135.5 135.5;" xml:space="preserve">
<style type="text/css">
	.st0{fill:url(#SVGID_1_);}
</style>
<g id="_x30_c185123-6c9d-4ddc-8229-c7cf4f88ba65">
	
		<linearGradient id="SVGID_1_" gradientUnits="userSpaceOnUse" x1="-116.2192" y1="246.2964" x2="-114.3655" y2="246.2964" gradientTransform="matrix(65.2542 25.3571 30.4285 -54.3785 73.9634 16378.7607)">
		<stop  offset="0" style="stop-color:#8E42D3"/>
		<stop  offset="1" style="stop-color:#D46975"/>
	</linearGradient>
	<path class="st0" d="M133.5,66.6c0-24.6-19.9-44.5-44.5-44.5C79.4,14.9,67.6,11,55.6,11C24.9,11,0,35.9,0,66.6s24.9,55.6,55.6,55.6
		c12,0,23.7-3.9,33.4-11.1C113.6,111.1,133.5,91.2,133.5,66.6z M87.1,105.5c-7.5-0.4-14.7-2.9-20.8-7.3C79.5,93.8,89,81.3,89,66.6
		S79.5,39.5,66.3,35c6.1-4.4,13.3-6.9,20.8-7.3c11.3,9.2,18.6,23.2,18.6,38.9S98.4,96.3,87.1,105.5z M50.1,66.6
		c0-10.6,4.3-20.2,11.2-27.2C73.9,42,83.4,53.2,83.4,66.6s-9.6,24.6-22.2,27.2C54.3,86.9,50.1,77.2,50.1,66.6z M54.2,94.4
		c-14.7-0.7-26.4-12.9-26.4-27.8s11.7-27,26.4-27.8c-6.3,7.9-9.8,17.7-9.7,27.8C44.5,77.2,48.1,86.8,54.2,94.4z M5.6,66.6
		C5.6,39,28,16.6,55.6,16.6c8.9,0,17.3,2.3,24.5,6.4c-7.7,1.6-14.9,5.2-20.8,10.5c-1.2-0.1-2.5-0.2-3.7-0.2
		c-18.4,0-33.4,14.9-33.4,33.4S37.2,100,55.6,100c1.3,0,2.5-0.1,3.7-0.2c5.9,5.3,13.1,8.9,20.8,10.5c-7.5,4.2-15.9,6.5-24.5,6.4
		C28,116.7,5.6,94.2,5.6,66.6z M95.9,104.9c9.5-10,15.3-23.5,15.3-38.3s-5.8-28.3-15.3-38.3c18.2,3.3,32,19.2,32,38.3
		S114.1,101.7,95.9,104.9z"/>
</g>
</svg>
