<?xml version="1.0" standalone="no"?>
<!DOCTYPE svg PUBLIC "-//W3C//DTD SVG 20010904//EN"
 "http://www.w3.org/TR/2001/REC-SVG-20010904/DTD/svg10.dtd">
<svg version="1.0" xmlns="http://www.w3.org/2000/svg"
 width="224.000000pt" height="224.000000pt" viewBox="0 0 224.000000 224.000000"
 preserveAspectRatio="xMidYMid meet">
<metadata>
Created by potrace 1.14, written by Peter Selinger 2001-2017
</metadata>
<g transform="translate(0.000000,224.000000) scale(0.100000,-0.100000)"
fill="#000000" stroke="none">
<path d="M927 2024 c-1 -1 -32 -5 -69 -8 -93 -10 -113 -14 -196 -42 -467 -156
-722 -652 -575 -1119 104 -330 371 -560 718 -618 73 -12 204 -14 265 -3 14 2
43 7 64 11 49 8 168 51 210 74 17 10 42 24 56 31 13 7 60 14 105 15 261 8 505
166 616 400 53 111 72 192 73 305 0 127 -11 189 -50 283 -100 237 -328 412
-571 441 -18 2 -41 10 -52 17 -84 61 -118 83 -181 114 -64 33 -140 60 -193 70
-10 3 -26 6 -35 9 -29 9 -179 25 -185 20z m155 -105 c24 -6 61 -15 83 -20 49
-13 215 -89 215 -100 0 -4 -19 -10 -42 -14 -61 -10 -179 -57 -239 -95 -48 -32
-54 -33 -162 -35 -87 -1 -125 -7 -172 -24 -383 -140 -483 -629 -184 -905 88
-82 205 -133 323 -140 49 -4 61 -10 121 -59 70 -58 148 -101 219 -122 l40 -12
-34 -16 c-154 -69 -355 -80 -530 -30 -332 95 -572 401 -584 746 -13 394 258
738 647 821 74 16 238 18 299 5z m457 -254 c250 -271 279 -688 70 -996 -49
-73 -174 -197 -206 -205 -48 -13 -223 54 -303 116 -24 18 -24 19 -5 25 11 4
53 23 93 42 187 89 305 298 289 511 -7 95 -13 118 -53 200 -43 89 -122 175
-203 223 -46 27 -58 39 -49 47 40 32 198 78 279 81 43 1 49 -2 88 -44z m288
-62 c115 -76 218 -219 259 -358 22 -77 26 -206 8 -292 -50 -243 -264 -450
-504 -488 l-45 -8 39 39 c93 92 175 229 215 358 31 101 32 110 36 246 5 200
-34 345 -142 513 -24 37 -43 69 -43 72 0 9 130 -50 177 -82z m-917 -85 c-99
-129 -145 -268 -144 -438 1 -135 18 -210 74 -322 21 -43 34 -78 29 -78 -5 0
-37 9 -71 21 -303 102 -401 480 -187 724 66 75 196 139 293 144 l46 2 -40 -53z
m299 -36 c213 -161 242 -465 64 -660 -58 -63 -141 -114 -218 -132 -56 -13 -57
-13 -76 11 -31 41 -86 151 -104 209 -9 30 -18 96 -20 145 -7 176 47 324 165
453 l45 49 54 -24 c30 -13 71 -36 90 -51z"/>
</g>
</svg>
